<svg width="2400" height="1600" viewBox="0 0 2400 1600" fill="none" xmlns="http://www.w3.org/2000/svg">
  <defs>
    <linearGradient id="bg" x1="0" y1="0" x2="1" y2="1">
      <stop offset="0%" stop-color="#FCFBF9"/>
      <stop offset="100%" stop-color="#F0EBE4"/>
    </linearGradient>
    <linearGradient id="plane" x1="0" y1="0" x2="0" y2="1">
      <stop offset="0%" stop-color="#F1EEE7"/>
      <stop offset="100%" stop-color="#DAD3C9"/>
    </linearGradient>
    <linearGradient id="stone" x1="0" y1="0" x2="0" y2="1">
      <stop offset="0%" stop-color="#F5F1EA"/>
      <stop offset="100%" stop-color="#D7D0C5"/>
    </linearGradient>
    <linearGradient id="glass" x1="0" y1="0" x2="1" y2="1">
      <stop offset="0%" stop-color="#EEF7FA"/>
      <stop offset="100%" stop-color="#BCD0DA"/>
    </linearGradient>
    <filter id="soft" x="-20%" y="-20%" width="140%" height="140%">
      <feGaussianBlur stdDeviation="42"/>
    </filter>
  </defs>

  <ellipse cx="1580" cy="1270" rx="520" ry="120" fill="#B8B6B1" fill-opacity="0.18" filter="url(#soft)"/>

  <g transform="translate(520 260) scale(1.48)">
    <polygon points="160,1236 804,1236 1018,1404 -60,1404" fill="url(#plane)"/>
    <polygon points="224,1114 738,1114 866,1212 116,1212" fill="#E7E2D9"/>
    <polygon points="286,968 646,968 746,1042 202,1042" fill="#D9D4CA"/>
    <polygon points="340,930 640,930 694,968 286,968" fill="#F5F1EA"/>

    <polygon points="380,1024 640,980 624,870 374,906" fill="url(#stone)"/>
    <polygon points="640,980 734,938 722,836 624,870" fill="#D3CDC3"/>
    <polygon points="398,1012 622,972 610,890 392,922" fill="url(#glass)"/>
    <polygon points="622,972 704,936 694,858 610,890" fill="#C8D8E0"/>

    <g opacity="0.74">
      <line x1="430" y1="995" x2="610" y2="962" stroke="#A7BCC8" stroke-width="6"/>
      <line x1="468" y1="1002" x2="450" y2="916" stroke="#AEC0CA" stroke-width="4"/>
      <line x1="534" y1="990" x2="516" y2="902" stroke="#AEC0CA" stroke-width="4"/>
      <line x1="600" y1="978" x2="582" y2="890" stroke="#AEC0CA" stroke-width="4"/>
    </g>

    <polygon points="424,972 618,936 612,842 426,868" fill="#F1ECE3"/>
    <polygon points="618,936 676,910 670,824 612,842" fill="#D6D0C5"/>
    <polygon points="452,952 596,926 590,858 450,878" fill="#DFEBF0"/>
    <polygon points="596,926 648,902 644,840 590,858" fill="#B7CCD7"/>

    <g opacity="0.92">
      <rect x="470" y="874" width="12" height="78" fill="#D6E2E7"/>
      <rect x="516" y="866" width="10" height="82" fill="#D6E2E7"/>
      <rect x="562" y="858" width="10" height="82" fill="#D6E2E7"/>
      <rect x="606" y="850" width="12" height="82" fill="#D6E2E7"/>
    </g>
  </g>
</svg>
