<svg width="1200" height="1000" viewBox="0 0 1200 1000" fill="none" xmlns="http://www.w3.org/2000/svg">
  <defs>
    <linearGradient id="towerShell" x1="0" y1="0" x2="0" y2="1">
      <stop offset="0%" stop-color="#edf1f2" stop-opacity="0.98" />
      <stop offset="100%" stop-color="#d5dde1" stop-opacity="0.9" />
    </linearGradient>
    <linearGradient id="towerGlass" x1="0" y1="0" x2="1" y2="1">
      <stop offset="0%" stop-color="#f6fafb" stop-opacity="0.86" />
      <stop offset="100%" stop-color="#d8e5ea" stop-opacity="0.72" />
    </linearGradient>
    <linearGradient id="podium" x1="0" y1="0" x2="0" y2="1">
      <stop offset="0%" stop-color="#e8e6e0" />
      <stop offset="100%" stop-color="#d4d3cd" />
    </linearGradient>
    <filter id="blurLarge" x="-40%" y="-40%" width="180%" height="180%">
      <feGaussianBlur stdDeviation="30" />
    </filter>
    <filter id="blurSoft" x="-40%" y="-40%" width="180%" height="180%">
      <feGaussianBlur stdDeviation="10" />
    </filter>
  </defs>

  <ellipse cx="770" cy="824" rx="266" ry="56" fill="#c8cbc8" fill-opacity="0.3" filter="url(#blurSoft)" />
  <ellipse cx="760" cy="216" rx="220" ry="76" fill="#ffffff" fill-opacity="0.9" filter="url(#blurLarge)" />
  <ellipse cx="968" cy="294" rx="154" ry="58" fill="#f3f6f7" fill-opacity="0.68" filter="url(#blurLarge)" />

  <g transform="translate(520 136)">
    <rect x="0" y="646" width="430" height="30" rx="15" fill="#ece9e2" fill-opacity="0.95" />
    <rect x="78" y="594" width="292" height="42" rx="18" fill="#dddeda" fill-opacity="0.96" />
    <rect x="132" y="546" width="186" height="40" rx="14" fill="#efede8" />

    <rect x="56" y="572" width="76" height="34" rx="10" fill="#dee1de" />
    <rect x="332" y="576" width="66" height="30" rx="10" fill="#dde0dd" />
    <rect x="358" y="540" width="58" height="52" rx="10" fill="#d9dcda" />
    <rect x="96" y="534" width="62" height="50" rx="10" fill="#dfe2df" />

    <rect x="116" y="504" width="214" height="48" rx="14" fill="url(#podium)" />
    <rect x="142" y="456" width="162" height="62" rx="16" fill="#dad7d1" />
    <rect x="154" y="470" width="138" height="44" rx="14" fill="#ece9e3" />
    <rect x="176" y="486" width="94" height="24" rx="8" fill="url(#towerGlass)" fill-opacity="0.74" />

    <rect x="154" y="110" width="174" height="354" rx="28" fill="url(#towerShell)" />
    <rect x="176" y="130" width="134" height="320" rx="20" fill="#d7e0e4" fill-opacity="0.66" />
    <rect x="190" y="134" width="102" height="314" rx="16" fill="url(#towerGlass)" />

    <rect x="186" y="136" width="6" height="312" rx="3" fill="#f1f4f4" fill-opacity="0.9" />
    <rect x="210" y="136" width="4" height="312" rx="2" fill="#edf2f4" fill-opacity="0.82" />
    <rect x="236" y="136" width="4" height="312" rx="2" fill="#edf2f4" fill-opacity="0.82" />
    <rect x="262" y="136" width="4" height="312" rx="2" fill="#edf2f4" fill-opacity="0.82" />
    <rect x="288" y="136" width="6" height="312" rx="3" fill="#f1f4f4" fill-opacity="0.88" />

    <rect x="190" y="168" width="102" height="4" rx="2" fill="#bed0d8" fill-opacity="0.82" />
    <rect x="190" y="210" width="102" height="4" rx="2" fill="#bed0d8" fill-opacity="0.78" />
    <rect x="190" y="252" width="102" height="4" rx="2" fill="#bed0d8" fill-opacity="0.78" />
    <rect x="190" y="294" width="102" height="4" rx="2" fill="#bed0d8" fill-opacity="0.78" />
    <rect x="190" y="336" width="102" height="4" rx="2" fill="#bed0d8" fill-opacity="0.78" />
    <rect x="190" y="378" width="102" height="4" rx="2" fill="#bed0d8" fill-opacity="0.78" />

    <rect x="178" y="48" width="128" height="94" rx="22" fill="#dce4e8" fill-opacity="0.96" />
    <rect x="198" y="62" width="88" height="72" rx="16" fill="url(#towerGlass)" fill-opacity="0.8" />
    <rect x="220" y="16" width="44" height="42" rx="10" fill="#c1cbd0" />
    <rect x="168" y="8" width="148" height="14" rx="7" fill="#efeee8" />

    <rect x="110" y="536" width="2" height="116" rx="1" fill="#b8c7cf" fill-opacity="0.56" />
    <rect x="160" y="536" width="196" height="2" rx="1" fill="#b8c7cf" fill-opacity="0.56" />
    <rect x="156" y="562" width="152" height="2" rx="1" fill="#9bb4c0" fill-opacity="0.72" />
    <rect x="242" y="546" width="2" height="78" rx="1" fill="#9bb4c0" fill-opacity="0.72" />
  </g>
</svg>
